<?xml version="1.0" ?>
<!DOCTYPE svg  PUBLIC '-//W3C//DTD SVG 1.1//EN'  'http://www.w3.org/Graphics/SVG/1.1/DTD/svg11.dtd'>
<!-- Uploaded to: SVG Repo, www.svgrepo.com, Generator: SVG Repo Mixer Tools -->
<svg width="800px" height="800px" viewBox="0 0 48 48" enable-background="new 0 0 48 48" id="_x3C_Layer_x3E_" version="1.1" xml:space="preserve" xmlns="http://www.w3.org/2000/svg" xmlns:xlink="http://www.w3.org/1999/xlink">
<g id="document_x2C__file">
<path d="M41,45.5H12c-0.276,0-0.5-0.224-0.5-0.5V14.5l8-8H41c0.276,0,0.5,0.224,0.5,0.5v38   C41.5,45.276,41.276,45.5,41,45.5z" fill="#E1F5FE"/>
<path d="M41,45H12v-1.586c0-0.276,0.224-0.5,0.5-0.5s0.5,0.224,0.5,0.5V44h27V8h-1.586c-0.276,0-0.5-0.224-0.5-0.5   s0.224-0.5,0.5-0.5H41V45z" fill="#FFFFFF"/>
<path d="M41,46H12c-0.551,0-1-0.449-1-1v-1.5c0-0.276,0.224-0.5,0.5-0.5s0.5,0.224,0.5,0.5V45h29V7h-2.5   C38.223,7,38,6.776,38,6.5S38.223,6,38.5,6H41c0.551,0,1,0.449,1,1v38C42,45.551,41.551,46,41,46z" fill="#0277BD"/>
<path d="M36,41.5H7c-0.276,0-0.5-0.224-0.5-0.5V10.5l8-8H36c0.276,0,0.5,0.224,0.5,0.5v38   C36.5,41.276,36.276,41.5,36,41.5z" fill="#E1F5FE"/>
<path d="M36,41H7V10.707L14.707,3H36V41z M8,40h27V4H15.121L8,11.121V40z" fill="#FFFFFF"/>
<path d="M36,42H7c-0.551,0-1-0.449-1-1V10.293L14.292,2H36c0.551,0,1,0.449,1,1v38C37,41.551,36.551,42,36,42z    M36,41v0.5V41L36,41z M7,10.707V41h29V3H14.707L7,10.707z" fill="#0277BD"/>
<path d="M14,10.5H6.5l8-8V10C14.5,10.276,14.276,10.5,14,10.5z" fill="#FFE57F"/>
<path d="M9.426,9.488c-0.128,0-0.256-0.049-0.354-0.146c-0.195-0.195-0.195-0.512,0-0.707l3.573-3.573   c0.195-0.195,0.512-0.195,0.707,0s0.195,0.512,0,0.707L9.779,9.342C9.682,9.439,9.554,9.488,9.426,9.488z" fill="#FFFFFF"/>
<path d="M14,11H6.5c-0.202,0-0.385-0.122-0.462-0.309c-0.078-0.187-0.035-0.402,0.108-0.545l8-8   c0.195-0.195,0.512-0.195,0.707,0s0.195,0.512,0,0.707L7.707,10H14V5.5C14,5.224,14.224,5,14.5,5S15,5.224,15,5.5V10   C15,10.551,14.551,11,14,11z" fill="#0277BD"/>
<g>
<path d="M30.5,27h-18c-0.276,0-0.5-0.224-0.5-0.5s0.224-0.5,0.5-0.5h18c0.276,0,0.5,0.224,0.5,0.5    S30.776,27,30.5,27z" fill="#0277BD"/>
<path d="M30.5,24h-18c-0.276,0-0.5-0.224-0.5-0.5s0.224-0.5,0.5-0.5h18c0.276,0,0.5,0.224,0.5,0.5    S30.776,24,30.5,24z" fill="#0277BD"/>
<path d="M30.5,21h-18c-0.276,0-0.5-0.224-0.5-0.5s0.224-0.5,0.5-0.5h18c0.276,0,0.5,0.224,0.5,0.5    S30.776,21,30.5,21z" fill="#0277BD"/>
<path d="M25.5,30h-13c-0.276,0-0.5-0.224-0.5-0.5s0.224-0.5,0.5-0.5h13c0.276,0,0.5,0.224,0.5,0.5    S25.776,30,25.5,30z" fill="#0277BD"/>
<path d="M25.5,15h-8c-0.276,0-0.5-0.224-0.5-0.5s0.224-0.5,0.5-0.5h8c0.276,0,0.5,0.224,0.5,0.5S25.776,15,25.5,15    z" fill="#0277BD"/>
<path d="M30.5,18h-18c-0.276,0-0.5-0.224-0.5-0.5s0.224-0.5,0.5-0.5h18c0.276,0,0.5,0.224,0.5,0.5    S30.776,18,30.5,18z" fill="#0277BD"/>
</g>
</g>
</svg>
